<?xml version="1.0" standalone="no"?>
<!DOCTYPE svg PUBLIC "-//W3C//DTD SVG 20010904//EN"
 "http://www.w3.org/TR/2001/REC-SVG-20010904/DTD/svg10.dtd">
<svg version="1.0" xmlns="http://www.w3.org/2000/svg"
 width="400.000000pt" height="400.000000pt" viewBox="0 0 400.000000 400.000000"
 preserveAspectRatio="xMidYMid meet">
<metadata>
Created by potrace 1.11, written by Peter Selinger 2001-2013
</metadata>
<g transform="translate(0.000000,400.000000) scale(0.100000,-0.100000)"
fill="#000000" stroke="none">
<path d="M430 3535 l0 -465 120 0 120 0 -2 -1067 -3 -1068 -117 -3 -118 -3 0
-464 0 -465 1243 0 1242 0 323 323 322 322 0 590 0 590 -125 125 -125 125 125
125 125 125 0 515 0 515 -323 323 -322 322 -1243 0 -1242 0 0 -465z m2752 88
l298 -298 0 -483 0 -482 -100 -97 c-56 -53 -119 -118 -142 -145 l-41 -50 141
-141 142 -142 0 -550 0 -550 -296 -303 -296 -302 -1189 0 -1189 0 0 385 0 384
118 3 117 3 0 1145 0 1145 -117 3 -118 3 0 384 0 385 1187 0 1188 0 297 -297z"/>
<path d="M670 3540 l0 -230 120 0 120 0 -2 -1307 -3 -1308 -117 -3 -118 -3 0
-224 0 -225 1063 0 1062 0 263 263 262 262 0 475 0 475 -175 175 c-96 96 -175
179 -175 185 0 6 79 89 175 185 l175 175 0 405 0 405 -263 263 -262 262 -1063
0 -1062 0 0 -230z m1877 -352 l123 -123 0 -260 0 -260 -122 -122 -123 -123
-432 0 -433 0 0 505 0 505 432 0 433 0 122 -122z m0 -1470 l123 -123 0 -331 0
-331 -129 -122 -129 -121 -426 0 -426 0 0 575 0 575 432 0 433 0 122 -122z"/>
<path d="M1720 2805 l0 -345 318 0 317 0 78 78 77 77 0 190 0 190 -78 78 -77
77 -318 0 -317 0 0 -345z m653 207 l57 -58 0 -149 0 -149 -57 -58 -57 -58
-258 0 -258 0 0 265 0 265 258 0 258 0 57 -58z"/>
<path d="M1720 1265 l0 -415 318 0 317 0 78 78 77 77 0 260 0 260 -78 78 -77
77 -318 0 -317 0 0 -415z m647 283 l63 -62 0 -222 0 -221 -59 -56 -60 -57
-255 0 -256 0 0 340 0 340 252 0 252 0 63 -62z"/>
</g>
</svg>
